<?xml version="1.0" encoding="utf-8"?>
<!-- Generator: Adobe Illustrator 24.1.2, SVG Export Plug-In . SVG Version: 6.00 Build 0)  -->
<svg version="1.1" id="Layer_1" xmlns="http://www.w3.org/2000/svg" xmlns:xlink="http://www.w3.org/1999/xlink" x="0px" y="0px"
	 viewBox="0 0 319 319" style="enable-background:new 0 0 319 319;" xml:space="preserve">
<style type="text/css">
	.st0{fill:#FFFFFF;}
	.st1{fill:#1791C8;}
</style>
<g>
	<polygon class="st0" points="92.8,176.4 72,243.9 3.4,243.9 56.5,70.5 30.9,32.1 128.8,32.1 139.6,80.9 154.5,32.1 222.9,32.1 
		160.1,237.9 117,268.8 	"/>
	<g>
		<path d="M16.9,233.9l50.5-165L49.6,42.1h71.2L138,120l23.9-77.9h47.5l-57.9,189.6L123,252.2L93.6,139.9l-29,94H16.9z"/>
	</g>
	<g>
		<g>
			<g>
				<path class="st1" d="M142.4,228.2l90.1-176h72.7l-17.8,176H240l1-17l-33.6-42.4h40l7.6-66.7v-5l-32.4,65.1h-32l19.8,26l-20.6,40
					L142.4,228.2L142.4,228.2z"/>
			</g>
		</g>
		<path class="st0" d="M227.1,43.5l-99.5,194.4h68.2l21.5-41.7l14.7,18.5l-1.4,23.2H296l19.6-194.4H227.1z M287.6,228.7h-47.4l1-17
			l-33.6-42.4h40l7.6-66.7v-5l-32.4,65.1h-32l19.8,26l-20.6,40h-47.6l90.1-176h72.7L287.6,228.7z M234.4,160.2L241,147l-1.5,13.2
			H234.4z"/>
	</g>
</g>
<g>
	<g>
		<g>
			<path class="st0" d="M147.3,279.7c0.5-0.7,1-1.6,1.4-2.4c1.1-2.2,1.6-4.6,1.6-7.2c0-4.2-1.7-14.2-16.9-14.2h-8.8
				c-3.7,0-6.5,2.7-6.5,6.4v3.4l-1.3-5.4c-0.2-1.7-1.6-4-6-4.2c-1.2-0.1-2.8-0.1-4.9-0.1s-3.9,0-4.9,0.1c-4.5,0.2-5.8,2.4-6,4.2
				l-3.5,13.5c-0.4-0.5-0.7-0.8-1.2-1.2c0.6-0.8,1.1-1.9,1.7-3.4c1-2.3,1.3-4.2,1.3-5.9v-0.5v-0.2c-0.1-2-1.4-4.8-6.5-6.1
				c-2.3-0.6-4.7-0.8-7.2-0.8c-4.3,0-8,1.3-10.8,3.9c-1-2.3-2.5-3.4-4.9-3.4H47.1c-1.3,0-2.5,0.5-3.5,1.2c-2.2-1.2-5.1-1.2-6.4-1.2
				c-1.7,0-6.1,0-8.1,2.5c-1.7-1.9-4.2-2.2-5.2-2.3c-1.4-0.2-2.8-0.2-4-0.2c-2,0-8.4,0-8.4,5.5v30.6c0,5.7,6.6,5.7,9,5.7
				c1.9,0,6.3,0,8.1-2.5c1.9,2.4,5.5,2.4,8.4,2.4c1.3,0,4.3,0,6.5-1.2c1.1,0.8,2.5,1.3,4.1,1.3h15.7c0.5,0,2.7-0.1,4.1-1.9
				c1.4,0.8,2.9,1.4,4.7,1.8c1.8,0.4,3.7,0.6,5.9,0.6l0,0l0,0c3.9-0.1,7-1,9.5-2.7c0.7,0.7,1.8,1.4,3.6,1.8c1.1,0.2,2.5,0.4,4.3,0.4
				c5.3,0,8.4-1.8,9.2-5.2l0.4-1.3l0.5,1.7c1.2,4.9,7.1,4.9,9,4.9c1,0,2.2-0.1,3.7-0.2c1.2-0.1,2.2-0.4,3-0.6c2,0.8,4.5,0.8,6,0.8
				c1.8,0,5.3,0,7.5-1.7c1.4,1.2,3.3,1.8,5.3,1.8c2.3,0,4.7-1,7.4-2.9c2.3-1.6,3.6-3.1,4.2-4.9l0.7-2L147.3,279.7z"/>
		</g>
		<g>
			<path class="st0" d="M306.2,260.9c-3.5-3.4-8.3-5.1-14.5-5.1h-7.6c-1.4,0-2.7,0.4-3.9,1.2c-0.8-0.7-2-1.2-3.4-1.2h-16.4
				c-1.7,0-3.1,0.6-4.2,1.7c-1-0.7-2.4-1.3-4.6-1.6c-1.7-0.2-3.3-0.2-4.6-0.2c-3.7,0-9.4,0-10.8,4.5l-0.2,0.7l-0.4-0.8
				c-1.3-3.5-5.3-4-6.6-4.1c-1.8-0.2-3.3-0.2-4.6-0.2c-2,0-6,0-8.4,1.8c-1-0.7-2.4-1.3-4.6-1.6h-0.2l-2.8-0.1c-0.8,0-1.8,0-2.7,0.1
				h-0.2c-2.3,0.2-3.9,1-4.8,1.8c-2.2-2-6.1-2-8-2c-2.5,0-9.4,0-9.4,5.8v4l-1.3-5.4c-0.2-1.7-1.6-4-6-4.2c-1.2-0.1-2.8-0.1-4.9-0.1
				c-2.2,0-3.9,0-4.9,0.1c-4.5,0.2-5.8,2.4-6,4.2l-8.2,31.2v0.6c0,1.8,0.8,4.1,4.7,5.1c1.1,0.2,2.5,0.4,4.3,0.4
				c5.3,0,8.4-1.8,9.2-5.2l0.4-1.3l0.5,1.7c1.2,4.9,7.1,4.9,9,4.9c1,0,2.2-0.1,3.7-0.2c1.3-0.1,2.3-0.4,3.3-0.7
				c2,0.8,4.6,0.8,6.1,0.8c1.9,0,5.7,0,7.8-1.8c2.2,1.8,5.9,1.8,7.8,1.8c1.8,0,4.9,0,7.1-1.3c0.8,0.5,2,1,3.6,1.2
				c1,0.1,1.8,0.1,2.8,0.1s2.2-0.1,3.5-0.4c1.8-0.2,3.1-1,4-1.7c1.8,1.8,4.9,1.8,6.5,1.8c1.6,0,4.6,0,6.4-1.8
				c1.4,1.3,3.9,1.9,7.4,1.9c1.1,0,2.4-0.1,3.7-0.2c1.4-0.2,2.5-0.6,3.4-1.1c1.1,0.8,2.5,1.3,4.1,1.3H277c0.5,0,1.9-0.1,3.4-1.2
				c1.2,0.7,2.5,1.2,4.2,1.2h7.8c7.2,0,19.2-2.8,19.2-21.7C311.6,269.4,309.7,264.3,306.2,260.9z"/>
		</g>
	</g>
	<g>
		<g>
			<path d="M41.4,291.8c0,0.6-1.4,1-4.3,1c-2.9,0-4.5-0.2-4.7-0.7l-7.6-14.2V292c0,0.6-1.4,0.8-4.2,0.8s-4.2-0.2-4.2-0.8v-30.6
				c0-0.5,1.2-0.7,3.6-0.7c1,0,2,0.1,3.4,0.2s2,0.5,2.3,1L33,276v-14.3c0-0.6,1.4-0.8,4.2-0.8c2.9,0,4.2,0.2,4.2,0.8
				C41.4,261.6,41.4,291.8,41.4,291.8z"/>
		</g>
		<g>
			<path d="M60.8,273.5c0.6,0,0.8,1.1,0.8,3.3c0,0.6-0.1,1.4-0.2,2.3s-0.4,1.3-0.7,1.3h-5.8v4.6h8.4c0.5,0,0.8,0.7,1.1,2
				c0.1,0.6,0.1,1.2,0.1,1.8c0,0.6-0.1,1.4-0.2,2.5c-0.2,1.1-0.5,1.6-1,1.6H47.7c-1.2,0-1.7-0.5-1.7-1.4V262c0-0.8,0.4-1.2,1.1-1.2
				h16.4c0.6,0,1,1.3,1,4.1c0,2.7-0.4,4.1-1,4.1h-8.4v4.6h5.8V273.5z"/>
		</g>
		<g>
			<path d="M69.8,281.7c0.6,0.5,1.6,1.1,3,1.9s2.8,1.2,4.1,1.2c1.3,0,1.9-0.5,1.9-1.6c0-0.5-0.2-0.8-0.6-1.2c-0.4-0.4-1.1-0.7-2-1.2
				c-1-0.5-1.7-0.8-2.2-1.1c-0.5-0.2-1.1-0.7-1.9-1.3c-0.8-0.6-1.4-1.2-1.8-1.8c-1.2-1.7-1.8-4-1.8-6.6c0-2.7,1-4.9,3-6.7
				c2-1.8,4.6-2.8,7.8-2.8c2.2,0,4.2,0.2,6.1,0.7s2.8,1.1,2.9,1.8c0,0.1,0,0.2,0,0.2c0,1.1-0.4,2.4-1,4.1c-0.7,1.7-1.2,2.5-1.4,2.8
				c-1.9-1-3.7-1.6-5.3-1.6c-1.6,0-2.3,0.6-2.3,1.7c0,0.7,0.6,1.3,1.7,1.8c0.2,0.1,0.6,0.2,1.1,0.5c0.5,0.2,1,0.5,1.6,0.7
				c0.6,0.2,1.2,0.6,1.9,1.1c0.7,0.5,1.4,1.1,2.2,1.8c1.6,1.6,2.4,3.5,2.4,6c0,3.3-0.8,5.9-2.7,8s-4.6,3.1-8.3,3.3
				c-1.8,0-3.5-0.1-4.9-0.5s-2.8-0.8-3.9-1.8c-1.1-0.8-1.7-1.9-1.7-3.3s0.2-2.5,0.7-3.7C68.8,282.9,69.3,282,69.8,281.7z"/>
		</g>
		<g>
			<path d="M114.5,293c-2.7,0-4.1-0.5-4.3-1.3l-1.6-5.9h-7.2l-1.3,5.7c-0.2,1-1.7,1.4-4.3,1.4c-1.4,0-2.5-0.1-3.3-0.2
				c-0.7-0.1-1.1-0.2-1.1-0.4l8.1-31c0-0.2,2-0.4,6.3-0.4c4.2,0,6.3,0.1,6.3,0.4l8,31c0,0.2-0.7,0.4-2,0.5
				C116.4,292.9,115.2,293,114.5,293z M102.4,280h4.8l-2-9.5H105L102.4,280z"/>
		</g>
		<g>
			<path d="M131.6,292.1c0,0.5-1.4,0.7-4.3,0.7c-2.9,0-4.3-0.2-4.3-0.7v-29.9c0-1.1,0.6-1.6,1.7-1.6h8.8c8.1,0,12.1,3.1,12.1,9.4
				c0,1.9-0.4,3.6-1.1,5.2c-0.7,1.6-1.8,2.8-3.1,3.7l5.8,9.6c-0.2,0.7-1.1,1.6-2.4,2.5c-1.8,1.3-3.4,1.9-4.6,1.9
				c-1.2,0-2-0.5-2.7-1.3l-4.3-10h-1.4L131.6,292.1L131.6,292.1z M131.6,268.9v6.9h0.2c2.9,0,4.3-1.2,4.3-3.6c0-1.1-0.2-1.9-0.8-2.4
				s-1.4-0.8-2.8-0.8H131.6z"/>
		</g>
	</g>
	<g>
		<g>
			<path class="st1" d="M180.1,293c-2.7,0-4.1-0.5-4.3-1.3l-1.6-5.9h-7.2l-1.3,5.7c-0.2,1-1.7,1.4-4.3,1.4c-1.4,0-2.5-0.1-3.3-0.2
				c-0.7-0.1-1.1-0.2-1.1-0.4l8.1-31c0-0.2,2-0.4,6.3-0.4c4.2,0,6.3,0.1,6.3,0.4l8,31.1c0,0.2-0.7,0.4-2,0.5
				C182,292.9,180.9,293,180.1,293z M168.1,280h4.8l-2-9.5h-0.4L168.1,280z"/>
		</g>
		<g>
			<path class="st1" d="M213.4,292c0,0.5-1.6,0.7-4.6,0.7c-3.1,0-4.6-0.2-4.6-0.7v-10.5h-6.4V292c0,0.5-1.6,0.7-4.6,0.7
				c-3.1,0-4.6-0.2-4.6-0.7v-30.4c0-0.6,1.6-1,4.6-1c3.1,0,4.6,0.4,4.6,1v10.7h6.4v-10.7c0-0.5,0.7-0.7,2.3-1c0.8,0,1.6-0.1,2.3-0.1
				l2.3,0.1c1.6,0.2,2.3,0.5,2.3,1L213.4,292L213.4,292z"/>
		</g>
		<g>
			<path class="st1" d="M250.1,292.9c-2.8,0-4.1-0.4-4.1-1l-1-18.3l-5.5,18.6c-0.1,0.4-1.2,0.6-3.1,0.6c-1.9,0-3-0.1-3-0.5
				l-5.8-18.8l-0.6,18.3c0,0.5-0.6,0.7-1.7,1c-1.1,0.1-2,0.2-2.8,0.2s-1.4,0-2.2-0.1c-1.4-0.2-2.2-0.6-2.2-1.2l1.1-29.8
				c0-0.7,1.8-1.1,5.5-1.1c1.1,0,2.4,0.1,4,0.2c1.6,0.1,2.5,0.5,2.7,1l5.2,14.5L241,262c0.2-0.8,2.4-1.2,6.3-1.2
				c1.1,0,2.5,0.1,4.1,0.2s2.4,0.5,2.4,0.8l1.3,30c0,0.4-0.6,0.6-1.8,0.7C252,292.7,251,292.9,250.1,292.9z"/>
		</g>
		<g>
			<path class="st1" d="M274.4,273.5c0.6,0,0.8,1.1,0.8,3.3c0,0.6-0.1,1.4-0.2,2.3s-0.4,1.3-0.7,1.3h-5.8v4.6h8.4
				c0.5,0,0.8,0.7,1.1,2c0.1,0.6,0.1,1.2,0.1,1.8c0,0.6-0.1,1.4-0.2,2.5c-0.2,1.1-0.5,1.6-1,1.6h-15.7c-1.2,0-1.7-0.5-1.7-1.4V262
				c0-0.8,0.4-1.2,1.1-1.2h16.4c0.6,0,1,1.3,1,4.1c0,2.7-0.4,4.1-1,4.1h-8.4v4.6h5.8V273.5z"/>
		</g>
		<g>
			<path class="st1" d="M282.1,290.7v-27.5c0-0.7,0.2-1.3,0.6-1.8s0.8-0.7,1.4-0.7h7.6c4.8,0,8.6,1.2,11.1,3.6s3.7,6.3,3.7,11.6
				c0,11.2-4.8,16.9-14.3,16.9h-7.8C283,292.9,282.1,292.1,282.1,290.7z M290.9,269.5v13.7c0,0.6,0,1.1,0.1,1.2
				c0.1,0.1,0.4,0.2,0.8,0.2c1.7,0,3-0.6,3.9-1.9c0.8-1.2,1.3-3.4,1.3-6.3s-0.5-4.8-1.3-5.7c-0.8-0.8-2.3-1.3-4.3-1.3L290.9,269.5
				L290.9,269.5z"/>
		</g>
	</g>
</g>
</svg>
