<?xml version="1.0" encoding="utf-8"?>
<!-- Generator: Adobe Illustrator 24.1.2, SVG Export Plug-In . SVG Version: 6.00 Build 0)  -->
<svg version="1.1" id="Layer_1" xmlns="http://www.w3.org/2000/svg" xmlns:xlink="http://www.w3.org/1999/xlink" x="0px" y="0px"
	 viewBox="0 0 655.9 236.7" style="enable-background:new 0 0 655.9 236.7;" xml:space="preserve">
<style type="text/css">
	.st0{fill:#FFFFFF;}
	.st1{fill:#1791C8;}
</style>
<g id="Logo">
	<polygon class="st0" points="89.4,144.3 68.6,211.8 0,211.8 53.1,38.4 27.5,0 125.4,0 136.2,48.8 151.1,0 219.5,0 156.7,205.8 
		113.6,236.7 	"/>
	<g>
		<path d="M13.5,201.8L64,36.8L46.2,10h71.2l17.2,77.9L158.5,10H206l-57.9,189.6l-28.5,20.5L90.2,107.8l-29,94H13.5z"/>
	</g>
	<g>
		<g>
			<g>
				<path class="st1" d="M139,196.1l90.1-176h72.7l-17.8,176h-47.4l1-17L204,136.7h40l7.6-66.7v-5l-32.4,65.1h-32l19.8,26l-20.6,40
					L139,196.1L139,196.1z"/>
			</g>
		</g>
		<path class="st0" d="M223.7,11.4l-99.5,194.4h68.2l21.5-41.7l14.7,18.5l-1.4,23.2h65.4l19.6-194.4H223.7z M284.2,196.6h-47.4l1-17
			l-33.6-42.4h40l7.6-66.7v-5l-32.4,65.1h-32l19.8,26l-20.6,40H139l90.1-176h72.7L284.2,196.6z M231,128.1l6.6-13.2l-1.5,13.2H231z"
			/>
	</g>
</g>
<g id="Horigintal">
	<g>
		<g>
			<path class="st0" d="M171-138.4c0.5-0.7,1-1.6,1.4-2.4c1.1-2.2,1.6-4.6,1.6-7.2c0-4.2-1.7-14.2-16.9-14.2h-8.8
				c-3.7,0-6.5,2.7-6.5,6.4v3.4l-1.3-5.4c-0.2-1.7-1.6-4-6-4.2c-1.2-0.1-2.8-0.1-4.9-0.1c-2.2,0-3.9,0-4.9,0.1
				c-4.5,0.2-5.8,2.4-6,4.2l-3.5,13.5c-0.4-0.5-0.7-0.8-1.2-1.2c0.6-0.8,1.1-1.9,1.7-3.4c1-2.3,1.3-4.2,1.3-5.9v-0.5v-0.2
				c-0.1-2-1.4-4.8-6.5-6.1c-2.3-0.6-4.7-0.8-7.2-0.8c-4.3,0-8,1.3-10.8,3.9c-1-2.3-2.5-3.4-4.9-3.4H70.9c-1.3,0-2.5,0.5-3.5,1.2
				c-2.2-1.2-5.1-1.2-6.4-1.2c-1.7,0-6.1,0-8.1,2.5c-1.7-1.9-4.2-2.2-5.2-2.3c-1.4-0.2-2.8-0.2-4-0.2c-2,0-8.4,0-8.4,5.5v30.6
				c0,5.7,6.6,5.7,9,5.7c1.9,0,6.3,0,8.1-2.5c1.9,2.4,5.5,2.4,8.4,2.4c1.3,0,4.3,0,6.5-1.2c1.1,0.8,2.5,1.3,4.1,1.3h15.7
				c0.5,0,2.7-0.1,4.1-1.9c1.4,0.8,2.9,1.4,4.7,1.8c1.8,0.4,3.7,0.6,5.9,0.6l0,0l0,0c3.9-0.1,7-1,9.5-2.7c0.7,0.7,1.8,1.4,3.6,1.8
				c1.1,0.2,2.5,0.4,4.3,0.4c5.3,0,8.4-1.8,9.2-5.2l0.4-1.3l0.5,1.7c1.2,4.9,7.1,4.9,9,4.9c1,0,2.2-0.1,3.7-0.2
				c1.2-0.1,2.2-0.4,3-0.6c2,0.8,4.5,0.8,6,0.8c1.8,0,5.3,0,7.5-1.7c1.4,1.2,3.3,1.8,5.3,1.8c2.3,0,4.7-1,7.4-2.9
				c2.3-1.6,3.6-3.1,4.2-4.9l0.7-2L171-138.4z"/>
		</g>
		<g>
			<path class="st0" d="M330-157.2c-3.5-3.4-8.3-5.1-14.5-5.1H308c-1.4,0-2.7,0.4-3.9,1.2c-0.8-0.7-2-1.2-3.4-1.2h-16.4
				c-1.7,0-3.1,0.6-4.2,1.7c-1-0.7-2.4-1.3-4.6-1.6c-1.7-0.2-3.3-0.2-4.6-0.2c-3.7,0-9.4,0-10.8,4.5l-0.2,0.7l-0.4-0.8
				c-1.3-3.5-5.3-4-6.6-4.1c-1.8-0.2-3.3-0.2-4.6-0.2c-2,0-6,0-8.4,1.8c-1-0.7-2.4-1.3-4.6-1.6H235l-2.8-0.1c-0.8,0-1.8,0-2.7,0.1
				h-0.2c-2.3,0.2-3.9,1-4.8,1.8c-2.2-2-6.1-2-8-2c-2.5,0-9.4,0-9.4,5.8v4l-1.3-5.4c-0.2-1.7-1.6-4-6-4.2c-1.2-0.1-2.8-0.1-4.9-0.1
				c-2.2,0-3.9,0-4.9,0.1c-4.5,0.2-5.8,2.4-6,4.2l-8.2,31.2v0.6c0,1.8,0.8,4.1,4.7,5.1c1.1,0.2,2.5,0.4,4.3,0.4
				c5.3,0,8.4-1.8,9.2-5.2l0.4-1.3l0.5,1.7c1.2,4.9,7.1,4.9,9,4.9c1,0,2.2-0.1,3.7-0.2c1.3-0.1,2.3-0.4,3.3-0.7
				c2,0.8,4.6,0.8,6.1,0.8c1.9,0,5.7,0,7.8-1.8c2.2,1.8,5.9,1.8,7.8,1.8c1.8,0,4.9,0,7.1-1.3c0.8,0.5,2,1,3.6,1.2
				c1,0.1,1.8,0.1,2.8,0.1s2.2-0.1,3.5-0.4c1.8-0.2,3.1-1,4-1.7c1.8,1.8,4.9,1.8,6.5,1.8c1.6,0,4.6,0,6.4-1.8
				c1.4,1.3,3.9,1.9,7.4,1.9c1.1,0,2.4-0.1,3.7-0.2c1.4-0.2,2.5-0.6,3.4-1.1c1.1,0.8,2.5,1.3,4.1,1.3h15.7c0.5,0,1.9-0.1,3.4-1.2
				c1.2,0.7,2.5,1.2,4.2,1.2h7.8c7.2,0,19.2-2.8,19.2-21.7C335.3-148.8,333.5-153.9,330-157.2z"/>
		</g>
	</g>
	<g>
		<g>
			<path d="M65.2-126.4c0,0.6-1.4,1-4.3,1s-4.5-0.2-4.7-0.7l-7.6-14.2v14.2c0,0.6-1.4,0.8-4.2,0.8s-4.2-0.2-4.2-0.8v-30.6
				c0-0.5,1.2-0.7,3.6-0.7c1,0,2,0.1,3.4,0.2c1.3,0.1,2,0.5,2.3,1l7.4,14.1v-14.3c0-0.6,1.4-0.8,4.2-0.8c2.9,0,4.2,0.2,4.2,0.8
				C65.2-156.5,65.2-126.4,65.2-126.4z"/>
		</g>
		<g>
			<path d="M84.6-144.7c0.6,0,0.8,1.1,0.8,3.3c0,0.6-0.1,1.4-0.2,2.3c-0.1,0.8-0.4,1.3-0.7,1.3h-5.8v4.6h8.4c0.5,0,0.8,0.7,1.1,2
				c0.1,0.6,0.1,1.2,0.1,1.8c0,0.6-0.1,1.4-0.2,2.5c-0.2,1.1-0.5,1.6-1,1.6H71.5c-1.2,0-1.7-0.5-1.7-1.4v-29.4
				c0-0.8,0.4-1.2,1.1-1.2h16.4c0.6,0,1,1.3,1,4.1c0,2.7-0.4,4.1-1,4.1h-8.4v4.6h5.8V-144.7z"/>
		</g>
		<g>
			<path d="M93.5-136.5c0.6,0.5,1.6,1.1,3,1.9c1.4,0.8,2.8,1.2,4.1,1.2c1.3,0,1.9-0.5,1.9-1.6c0-0.5-0.2-0.8-0.6-1.2s-1.1-0.7-2-1.2
				c-1-0.5-1.7-0.8-2.2-1.1c-0.5-0.2-1.1-0.7-1.9-1.3c-0.8-0.6-1.4-1.2-1.8-1.8c-1.2-1.7-1.8-4-1.8-6.6s1-4.9,3-6.7
				c2-1.8,4.6-2.8,7.8-2.8c2.2,0,4.2,0.2,6.1,0.7c1.9,0.5,2.8,1.1,2.9,1.8c0,0.1,0,0.2,0,0.2c0,1.1-0.4,2.4-1,4.1
				c-0.7,1.7-1.2,2.5-1.4,2.8c-1.9-1-3.7-1.6-5.3-1.6s-2.3,0.6-2.3,1.7c0,0.7,0.6,1.3,1.7,1.8c0.2,0.1,0.6,0.2,1.1,0.5
				c0.5,0.2,1,0.5,1.6,0.7c0.6,0.2,1.2,0.6,1.9,1.1c0.7,0.5,1.4,1.1,2.2,1.8c1.6,1.6,2.4,3.5,2.4,6c0,3.3-0.8,5.9-2.7,8
				s-4.6,3.1-8.3,3.3c-1.8,0-3.5-0.1-4.9-0.5c-1.4-0.4-2.8-0.8-3.9-1.8c-1.1-0.8-1.7-1.9-1.7-3.3s0.2-2.5,0.7-3.7
				C92.6-135.3,93.1-136.1,93.5-136.5z"/>
		</g>
		<g>
			<path d="M138.3-125.2c-2.7,0-4.1-0.5-4.3-1.3l-1.6-5.9h-7.2l-1.3,5.7c-0.2,1-1.7,1.4-4.3,1.4c-1.4,0-2.5-0.1-3.3-0.2
				c-0.7-0.1-1.1-0.2-1.1-0.4l8.1-31c0-0.2,2-0.4,6.3-0.4c4.2,0,6.3,0.1,6.3,0.4l8,31c0,0.2-0.7,0.4-2,0.5
				C140.2-125.3,139-125.2,138.3-125.2z M126.2-138.2h4.8l-2-9.5h-0.2L126.2-138.2z"/>
		</g>
		<g>
			<path d="M155.4-126c0,0.5-1.4,0.7-4.3,0.7c-2.9,0-4.3-0.2-4.3-0.7v-29.9c0-1.1,0.6-1.6,1.7-1.6h8.8c8.1,0,12.1,3.1,12.1,9.4
				c0,1.9-0.4,3.6-1.1,5.2c-0.7,1.6-1.8,2.8-3.1,3.7l5.8,9.6c-0.2,0.7-1.1,1.6-2.4,2.5c-1.8,1.3-3.4,1.9-4.6,1.9
				c-1.2,0-2-0.5-2.7-1.3l-4.3-10h-1.4L155.4-126L155.4-126z M155.4-149.3v6.9h0.2c2.9,0,4.3-1.2,4.3-3.6c0-1.1-0.2-1.9-0.8-2.4
				s-1.4-0.8-2.8-0.8H155.4z"/>
		</g>
	</g>
	<g>
		<g>
			<path class="st1" d="M203.8-125.2c-2.7,0-4.1-0.5-4.3-1.3l-1.6-5.9h-7.2l-1.3,5.7c-0.2,1-1.7,1.4-4.3,1.4c-1.4,0-2.5-0.1-3.3-0.2
				c-0.7-0.1-1.1-0.2-1.1-0.4l8.1-31c0-0.2,2-0.4,6.3-0.4c4.2,0,6.3,0.1,6.3,0.4l8,31.1c0,0.2-0.7,0.4-2,0.5
				C205.8-125.3,204.7-125.2,203.8-125.2z M191.9-138.2h4.8l-2-9.5h-0.4L191.9-138.2z"/>
		</g>
		<g>
			<path class="st1" d="M237.2-126.1c0,0.5-1.6,0.7-4.6,0.7c-3.1,0-4.6-0.2-4.6-0.7v-10.5h-6.4v10.5c0,0.5-1.6,0.7-4.6,0.7
				c-3.1,0-4.6-0.2-4.6-0.7v-30.4c0-0.6,1.6-1,4.6-1c3.1,0,4.6,0.4,4.6,1v10.7h6.4v-10.7c0-0.5,0.7-0.7,2.3-1c0.8,0,1.6-0.1,2.3-0.1
				l2.3,0.1c1.6,0.2,2.3,0.5,2.3,1L237.2-126.1L237.2-126.1z"/>
		</g>
		<g>
			<path class="st1" d="M273.9-125.3c-2.8,0-4.1-0.4-4.1-1l-1-18.3l-5.5,18.6c-0.1,0.4-1.2,0.6-3.1,0.6s-3-0.1-3-0.5l-5.8-18.8
				l-0.6,18.3c0,0.5-0.6,0.7-1.7,1c-1.1,0.1-2,0.2-2.8,0.2s-1.4,0-2.2-0.1c-1.4-0.2-2.2-0.6-2.2-1.2l1.1-29.8c0-0.7,1.8-1.1,5.5-1.1
				c1.1,0,2.4,0.1,4,0.2c1.6,0.1,2.5,0.5,2.7,1l5.2,14.5l4.5-14.5c0.2-0.8,2.4-1.2,6.3-1.2c1.1,0,2.5,0.1,4.1,0.2
				c1.6,0.1,2.4,0.5,2.4,0.8l1.3,30c0,0.4-0.6,0.6-1.8,0.7C275.8-125.4,274.8-125.3,273.9-125.3z"/>
		</g>
		<g>
			<path class="st1" d="M298.2-144.7c0.6,0,0.8,1.1,0.8,3.3c0,0.6-0.1,1.4-0.2,2.3c-0.1,0.8-0.4,1.3-0.7,1.3h-5.8v4.6h8.4
				c0.5,0,0.8,0.7,1.1,2c0.1,0.6,0.1,1.2,0.1,1.8c0,0.6-0.1,1.4-0.2,2.5c-0.2,1.1-0.5,1.6-1,1.6h-15.7c-1.2,0-1.7-0.5-1.7-1.4v-29.4
				c0-0.8,0.4-1.2,1.1-1.2h16.4c0.6,0,1,1.3,1,4.1c0,2.7-0.4,4.1-1,4.1h-8.4v4.6h5.8V-144.7z"/>
		</g>
		<g>
			<path class="st1" d="M305.9-127.5v-27.5c0-0.7,0.2-1.3,0.6-1.8c0.4-0.5,0.8-0.7,1.4-0.7h7.6c4.8,0,8.6,1.2,11.1,3.6
				c2.5,2.4,3.7,6.3,3.7,11.6c0,11.2-4.8,16.9-14.3,16.9h-7.8C306.8-125.3,305.9-126,305.9-127.5z M314.7-148.7v13.7
				c0,0.6,0,1.1,0.1,1.2c0.1,0.1,0.4,0.2,0.8,0.2c1.7,0,3-0.6,3.9-1.9c0.8-1.2,1.3-3.4,1.3-6.3c0-2.9-0.5-4.8-1.3-5.7
				c-0.8-0.8-2.3-1.3-4.3-1.3L314.7-148.7L314.7-148.7z"/>
		</g>
	</g>
</g>
<g id="vertical">
	<g>
		<g>
			<path class="st0" d="M624.7,72.3c1-1.6,2.1-3.4,3.1-5.2c2.3-4.7,3.4-9.9,3.4-15.6c0-9.1-3.6-30.6-36.3-30.6h-19
				c-8,0-14,5.7-14,13.8v7.3L559,30.2c-0.5-3.6-3.4-8.6-13-9.1c-2.6-0.3-6-0.3-10.6-0.3c-4.7,0-8.3,0-10.6,0.3
				c-9.6,0.5-12.5,5.2-13,9.1l-7.5,29.1c-0.8-1-1.6-1.8-2.6-2.6c1.3-1.8,2.3-4.2,3.6-7.3c2.1-4.9,2.9-9.1,2.9-12.7v-1v-0.5
				c-0.3-4.4-3.1-10.4-14-13.2c-4.9-1.3-10.1-1.8-15.6-1.8c-9.3,0-17.1,2.9-23.4,8.3c-2.1-4.9-5.5-7.3-10.6-7.3h-35.6
				c-2.9,0-5.5,1-7.5,2.6c-4.7-2.6-10.9-2.6-13.8-2.6c-3.6,0-13.2,0-17.4,5.5c-3.6-4.2-9.1-4.7-11.2-4.9c-3.1-0.5-6-0.5-8.6-0.5
				c-4.4,0-18.2,0-18.2,11.9V99c0,12.2,14.3,12.2,19.5,12.2c4.2,0,13.5,0,17.4-5.5c4.2,5.2,11.9,5.2,18.2,5.2c2.9,0,9.3,0,14-2.6
				c2.3,1.8,5.5,2.9,8.8,2.9H444c1,0,5.7-0.3,8.8-4.2c3.1,1.8,6.2,3.1,10.1,3.9c3.9,0.8,8,1.3,12.7,1.3l0,0l0,0
				c8.3-0.3,15.1-2.1,20.5-5.7c1.6,1.6,3.9,3.1,7.8,3.9c2.3,0.5,5.5,0.8,9.3,0.8c11.4,0,18.2-3.9,19.7-11.2l0.8-2.9l1,3.6
				c2.6,10.6,15.3,10.6,19.5,10.6c2.1,0,4.7-0.3,8-0.5c2.6-0.3,4.7-0.8,6.5-1.3c4.4,1.8,9.6,1.8,13,1.8c3.9,0,11.4,0,16.1-3.6
				c3.1,2.6,7,3.9,11.4,3.9c4.9,0,10.1-2.1,15.8-6.2c4.9-3.4,7.8-6.8,9.1-10.6l1.6-4.4L624.7,72.3z"/>
		</g>
		<g>
			<g>
				<path d="M396.7,98.2c0,1.3-3.1,2.1-9.3,2.1c-6.2,0-9.6-0.5-10.1-1.6l-16.4-30.6v30.6c0,1.3-3.1,1.8-9.1,1.8s-9.1-0.5-9.1-1.8
					V32.8c0-1,2.6-1.6,7.8-1.6c2.1,0,4.4,0.3,7.3,0.5c2.9,0.3,4.4,1,4.9,2.1l15.8,30.4V33.3c0-1.3,3.1-1.8,9.1-1.8
					c6.2,0,9.1,0.5,9.1,1.8C396.7,33.3,396.7,98.2,396.7,98.2z"/>
			</g>
			<g>
				<path d="M438.5,58.8c1.3,0,1.8,2.3,1.8,7c0,1.3-0.3,3.1-0.5,4.9c-0.3,1.8-0.8,2.9-1.6,2.9h-12.5v9.9H444c1,0,1.8,1.6,2.3,4.4
					c0.3,1.3,0.3,2.6,0.3,3.9s-0.3,3.1-0.5,5.5c-0.5,2.3-1,3.4-2.1,3.4h-33.8c-2.6,0-3.6-1-3.6-3.1V34.1c0-1.8,0.8-2.6,2.3-2.6h35.3
					c1.3,0,2.1,2.9,2.1,8.8c0,5.7-0.8,8.8-2.1,8.8H426V59h12.5V58.8z"/>
			</g>
			<g>
				<path d="M457.7,76.4c1.3,1,3.4,2.3,6.5,4.2c3.1,1.8,6,2.6,8.8,2.6s4.2-1,4.2-3.4c0-1-0.5-1.8-1.3-2.6c-0.8-0.8-2.3-1.6-4.4-2.6
					s-3.6-1.8-4.7-2.3c-1-0.5-2.3-1.6-4.2-2.9c-1.8-1.3-3.1-2.6-3.9-3.9c-2.6-3.6-3.9-8.6-3.9-14.3s2.1-10.6,6.5-14.5
					c4.4-3.9,9.9-6,16.9-6c4.7,0,9.1,0.5,13.2,1.6c4.2,1,6,2.3,6.2,3.9c0,0.3,0,0.5,0,0.5c0,2.3-0.8,5.2-2.1,8.8
					c-1.6,3.6-2.6,5.5-3.1,6c-4.2-2.1-8-3.4-11.4-3.4s-4.9,1.3-4.9,3.6c0,1.6,1.3,2.9,3.6,3.9c0.5,0.3,1.3,0.5,2.3,1
					c1,0.5,2.1,1,3.4,1.6c1.3,0.5,2.6,1.3,4.2,2.3c1.6,1,3.1,2.3,4.7,3.9c3.4,3.4,5.2,7.5,5.2,13c0,7-1.8,12.7-5.7,17.1
					c-3.9,4.4-9.9,6.8-17.9,7c-3.9,0-7.5-0.3-10.6-1c-3.1-0.8-6-1.8-8.3-3.9c-2.3-1.8-3.6-4.2-3.6-7s0.5-5.5,1.6-8
					C455.6,79,456.7,77.2,457.7,76.4z"/>
			</g>
			<g>
				<path d="M554,100.8c-5.7,0-8.8-1-9.3-2.9l-3.4-12.7h-15.6l-2.9,12.2c-0.5,2.1-3.6,3.1-9.3,3.1c-3.1,0-5.5-0.3-7-0.5
					s-2.3-0.5-2.3-0.8l17.4-66.7c0-0.5,4.4-0.8,13.5-0.8c9.1,0,13.5,0.3,13.5,0.8l17.1,66.7c0,0.5-1.6,0.8-4.4,1
					C558.2,100.6,555.6,100.8,554,100.8z M528.1,72.8h10.4l-4.4-20.5h-0.5L528.1,72.8z"/>
			</g>
			<g>
				<path d="M590.9,99c0,1-3.1,1.6-9.3,1.6c-6.2,0-9.3-0.5-9.3-1.6V34.6c0-2.3,1.3-3.4,3.6-3.4h19c17.4,0,26,6.8,26,20.3
					c0,4.2-0.8,7.8-2.3,11.2c-1.6,3.4-3.9,6-6.8,8l12.5,20.8c-0.5,1.6-2.3,3.4-5.2,5.5c-3.9,2.9-7.3,4.2-9.9,4.2
					c-2.6,0-4.4-1-5.7-2.9L594,76.7h-3.1L590.9,99L590.9,99z M590.9,48.9v14.8h0.5c6.2,0,9.3-2.6,9.3-7.8c0-2.3-0.5-4.2-1.8-5.2
					c-1.3-1-3.1-1.8-6-1.8H590.9z"/>
			</g>
		</g>
	</g>
	<g>
		<g>
			<path class="st0" d="M644.5,123.4c-7.5-7.3-17.9-10.9-31.2-10.9H597c-3.1,0-5.7,0.8-8.3,2.6c-1.8-1.6-4.4-2.6-7.3-2.6h-35.3
				c-3.6,0-6.8,1.3-9.1,3.6c-2.1-1.6-5.2-2.9-9.9-3.4c-3.6-0.5-7-0.5-9.9-0.5c-8,0-20.3,0-23.4,9.6l-0.5,1.6l-0.8-1.8
				c-2.9-7.5-11.4-8.6-14.3-8.8c-3.9-0.5-7-0.5-9.9-0.5c-4.4,0-13,0-18.2,3.9c-2.1-1.6-5.2-2.9-9.9-3.4h-0.5l-6-0.3
				c-1.8,0-3.9,0-5.7,0.3h-0.5c-4.9,0.5-8.3,2.1-10.4,3.9c-4.7-4.4-13.2-4.4-17.1-4.4c-5.5,0-20.3,0-20.3,12.5v8.6l-2.9-11.7
				c-0.5-3.6-3.4-8.6-13-9.1c-2.6-0.3-6-0.3-10.6-0.3c-4.7,0-8.3,0-10.6,0.3c-9.6,0.5-12.5,5.2-13,9.1l-17.7,67.2v1.3
				c0,3.9,1.8,8.8,10.1,10.9c2.3,0.5,5.5,0.8,9.3,0.8c11.4,0,18.2-3.9,19.7-11.2l0.8-2.9l1,3.6c2.6,10.6,15.3,10.6,19.5,10.6
				c2.1,0,4.7-0.3,8-0.5c2.9-0.3,4.9-0.8,7-1.6c4.4,1.8,9.9,1.8,13.2,1.8c4.2,0,12.2,0,16.9-3.9c4.7,3.9,12.7,3.9,16.9,3.9
				c3.9,0,10.6,0,15.3-2.9c1.8,1,4.4,2.1,7.8,2.6c2.1,0.3,3.9,0.3,6,0.3c2.1,0,4.7-0.3,7.5-0.8c3.9-0.5,6.8-2.1,8.6-3.6
				c3.9,3.9,10.6,3.9,14,3.9c3.4,0,9.9,0,13.8-3.9c3.1,2.9,8.3,4.2,15.8,4.2c2.3,0,5.2-0.3,8-0.5c3.1-0.5,5.5-1.3,7.3-2.3
				c2.3,1.8,5.5,2.9,8.8,2.9h33.8c1,0,4.2-0.3,7.3-2.6c2.6,1.6,5.5,2.6,9.1,2.6h16.9c15.6,0,41.3-6,41.3-46.7
				C655.9,141.6,652.1,130.7,644.5,123.4z"/>
		</g>
		<g>
			<g>
				<path class="st1" d="M372.7,192.5c-5.7,0-8.8-1-9.3-2.9l-3.4-12.7h-15.6l-2.9,12.2c-0.5,2.1-3.6,3.1-9.3,3.1
					c-3.1,0-5.5-0.3-7-0.5c-1.6-0.3-2.3-0.5-2.3-0.8l17.4-66.7c0-0.5,4.4-0.8,13.5-0.8s13.5,0.3,13.5,0.8l17.1,67
					c0,0.5-1.6,0.8-4.4,1C376.8,192.2,374.5,192.5,372.7,192.5z M347,164.5h10.4l-4.4-20.5h-0.8L347,164.5z"/>
			</g>
			<g>
				<path class="st1" d="M444.6,190.4c0,1-3.4,1.6-9.9,1.6c-6.8,0-9.9-0.5-9.9-1.6v-22.6h-13.8v22.6c0,1-3.4,1.6-9.9,1.6
					c-6.8,0-9.9-0.5-9.9-1.6V125c0-1.3,3.4-2.1,9.9-2.1c6.8,0,9.9,0.8,9.9,2.1v23.1h13.8V125c0-1,1.6-1.6,4.9-2.1
					c1.8,0,3.4-0.3,4.9-0.3l4.9,0.3c3.4,0.5,4.9,1,4.9,2.1L444.6,190.4L444.6,190.4z"/>
			</g>
			<g>
				<path class="st1" d="M523.5,192.2c-6,0-8.8-0.8-8.8-2.1l-2.1-39.5l-11.9,40c-0.3,0.8-2.6,1.3-6.8,1.3s-6.5-0.3-6.5-1L475,150.4
					l-1.3,39.5c0,1-1.3,1.6-3.6,2.1c-2.3,0.3-4.4,0.5-6,0.5c-1.6,0-3.1,0-4.7-0.3c-3.1-0.5-4.7-1.3-4.7-2.6l2.3-64.1
					c0-1.6,3.9-2.3,11.9-2.3c2.3,0,5.2,0.3,8.6,0.5c3.4,0.3,5.5,1,5.7,2.1l11.2,31.2l9.6-31.2c0.5-1.8,5.2-2.6,13.5-2.6
					c2.3,0,5.5,0.3,8.8,0.5c3.4,0.3,5.2,1,5.2,1.8l2.9,64.6c0,0.8-1.3,1.3-3.9,1.6C527.7,192,525.6,192.2,523.5,192.2z"/>
			</g>
			<g>
				<path class="st1" d="M576,150.4c1.3,0,1.8,2.3,1.8,7c0,1.3-0.3,3.1-0.5,4.9c-0.3,1.8-0.8,2.9-1.6,2.9h-12.5v9.9h18.2
					c1,0,1.8,1.6,2.3,4.4c0.3,1.3,0.3,2.6,0.3,3.9c0,1.3-0.3,3.1-0.5,5.5c-0.5,2.3-1,3.4-2.1,3.4h-33.8c-2.6,0-3.6-1-3.6-3.1v-63.3
					c0-1.8,0.8-2.6,2.3-2.6h35.3c1.3,0,2.1,2.9,2.1,8.8c0,5.7-0.8,8.8-2.1,8.8h-18.2v9.9H576V150.4z"/>
			</g>
			<g>
				<path class="st1" d="M592.6,187.6v-59.2c0-1.6,0.5-2.9,1.3-3.9s1.8-1.6,3.1-1.6h16.4c10.4,0,18.4,2.6,23.9,7.8
					c5.5,5.2,8,13.5,8,24.9c0,24.1-10.4,36.3-30.9,36.3h-16.9C594.4,192.2,592.6,190.7,592.6,187.6z M611.6,141.9v29.6
					c0,1.3,0,2.3,0.3,2.6s0.8,0.5,1.8,0.5c3.6,0,6.5-1.3,8.3-4.2c1.8-2.6,2.9-7.3,2.9-13.5s-1-10.4-2.9-12.2
					c-1.8-1.8-4.9-2.9-9.3-2.9L611.6,141.9L611.6,141.9z"/>
			</g>
		</g>
	</g>
</g>
</svg>
